<?xml version="1.0" encoding="UTF-8"?>
<svg width="189px" height="199px" viewBox="0 0 189 199" version="1.1" xmlns="http://www.w3.org/2000/svg" xmlns:xlink="http://www.w3.org/1999/xlink">
    <!-- Generator: Sketch 59.1 (86144) - https://sketch.com -->
    <title>download (1)</title>
    <desc>Created with Sketch.</desc>
    <defs>
        <path d="M0.40084375,0.960151351 L0.40084375,106.574184 C0.40084375,106.574184 3.37409896,105.719335 19.6347292,109.141346 C35.8953594,112.563357 39.5234583,122.210654 65.4433646,120.260265 C91.3632708,118.309876 126.845219,101.087324 126.845219,101.087324 L126.845219,0.958189189 C126.845219,0.958189189 118.360693,0.402243243 104.580531,3.94394595 C93.5890781,6.76880541 78.3689219,13.7711081 66.6789688,14.1072919 C40.758401,14.8535676 35.8675781,10.3569459 23.1649323,3.94394595 C10.4622865,-2.46905405 0.40084375,0.960151351 0.40084375,0.960151351 Z" id="path-1"></path>
    </defs>
    <g id="Mobile" stroke="none" stroke-width="1" fill="none" fill-rule="evenodd">
        <g id="download-(1)" transform="translate(2.000000, 2.000000)">
            <g id="Ellipse_37" transform="translate(14.000000, 0.000000)">
                <ellipse id="Oval" fill="#FFFFFF" fill-rule="nonzero" cx="85.5" cy="85" rx="84.1846154" ry="83.6923077"></ellipse>
                <ellipse id="Oval" stroke="#111111" stroke-width="4" cx="85.5" cy="85" rx="85.5" ry="85"></ellipse>
            </g>
            <g id="Group_15" transform="translate(0.000000, 117.000000)">
                <path d="M32.9735085,78.6735537 L32.5180678,41.3091653 C32.5180678,41.3091653 35.1469322,41.390124 36.2766102,40.3246033 C37.4062881,39.2590826 37.7665424,38.7276281 38.1578644,36.7121488 C38.5491864,34.6966694 39.1441017,24.1524545 38.1578644,22.0357769 C37.1716271,19.9190992 34.9420169,17.3950165 33.6536949,18.3919835 C32.3653729,19.3889504 32.5187288,26.1868678 32.5187288,26.1868678 C32.5187288,26.1868678 32.9199661,9.26323967 32.5187288,8.50784298 C32.1174915,7.75244628 29.7715424,5.36416529 27.457322,5.0475124 C25.1431017,4.7308595 22.347,7.60619835 22.347,7.60619835 L22.347,24.9202562 C22.347,24.9202562 22.5360508,5.68212397 22.347,5.0475124 C21.5213262,2.58632666 19.2128274,0.907900857 16.5882203,0.860512397 C12.3081356,0.622206612 10.4890169,3.60266116 10.4361356,4.53890909 C10.3832542,5.47515702 10.4361356,24.9202562 10.4361356,24.9202562 L10.4361356,12.397124 C10.4361356,12.397124 9.84783051,9.5061157 5.30862712,9.58185124 C2.8187952,9.47940794 0.612693519,11.1544303 0.0727118644,13.557314 L0.0727118644,78.6735537 L32.9735085,78.6735537 Z" id="Path_123" fill="#FFFFFF" fill-rule="nonzero"></path>
                <path d="M0.0720508475,78.0206612 L0.0720508475,12.9044215 C0.612032502,10.5015377 2.81813418,8.82651537 5.3079661,8.92895868 C9.84783051,8.85322314 10.4354746,11.7442314 10.4354746,11.7442314 L10.4354746,24.2673636 C10.4354746,24.2673636 10.3825932,4.82422314 10.4354746,3.88601653 C10.4883559,2.94780992 12.3074746,-0.031338843 16.5875593,0.207619835 C19.2121664,0.255008295 21.5206651,1.93343409 22.346339,4.39461983 C22.5353898,5.0292314 22.346339,24.2673636 22.346339,24.2673636 L22.346339,6.95330579 C22.346339,6.95330579 25.1424407,4.08057851 27.456661,4.39461983 C29.7708814,4.70866116 32.1161695,7.09890083 32.5180678,7.85495041 C32.9199661,8.611 32.5180678,25.5339752 32.5180678,25.5339752 C32.5180678,25.5339752 32.3653729,18.7360579 33.6530339,17.7390909 C34.9406949,16.742124 37.1709661,19.2668595 38.1572034,21.3828843 C39.1434407,23.4989091 38.5478644,34.0437769 38.1572034,36.0592562 C37.7665424,38.0747355 37.4056271,38.6055372 36.2759492,39.6717107 C35.1462712,40.7378843 32.5174068,40.6562727 32.5174068,40.6562727 L32.9728475,78.0206612" id="Path_121" stroke="#111111" stroke-width="4" stroke-linecap="round"></path>
                <line x1="5.75084746" y1="25.2669421" x2="27.3350339" y2="25.2669421" id="Path_122" stroke="#111111" stroke-width="4" stroke-linecap="round"></line>
            </g>
            <path d="M39,50 C39,50 39.1903903,56.1451009 44.6198158,55.9973787 C50.0492413,55.8496566 50,50 50,50" id="Path_120" stroke="#111111" stroke-width="4" stroke-linecap="round"></path>
            <path d="M84,50 C84,50 84.1903903,56.1451009 89.6198158,55.9973787 C95.0492413,55.8496566 95,50 95,50" id="Path_119" stroke="#111111" stroke-width="4" stroke-linecap="round"></path>
            <path d="M6,62.9341829 L6,170.763102 C6,170.763102 9.00968188,169.890345 25.469788,173.384004 C41.9298941,176.877662 45.6028158,186.7251 71.8437274,184.737737 C98.084639,182.750373 134,165.163128 134,165.163128 L134,62.9341829 C134,62.9341829 125.412233,62.3663648 111.461737,65.982262 C100.335294,68.866699 84.9281807,76.0150294 73.0942384,76.3587434 C46.8553085,77.1210918 41.9041308,72.5299144 29.0449413,65.982262 C16.1857517,59.4346095 6,62.9341829 6,62.9341829 Z" id="Path_129" stroke="#111111" stroke-width="4" fill="#EC96AA" fill-rule="nonzero"></path>
            <g id="Mask_Group_2-Clipped" transform="translate(6.000000, 63.000000)">
                <mask id="mask-2" fill="white">
                    <use xlink:href="#path-1"></use>
                </mask>
                <g id="Path_124"></g>
                <g id="Mask_Group_2" mask="url(#mask-2)" stroke="#D23059" stroke-width="4">
                    <g transform="translate(-1.322917, 3.924324)">
                        <line x1="23.9633125" y1="0.55332973" x2="23.9633125" y2="106.227535" id="Path_125"></line>
                        <line x1="105.984146" y1="1.20738378" x2="105.984146" y2="106.881589" id="Path_126"></line>
                        <path d="M0.550333333,22.3686486 C0.550333333,22.3686486 12.7681302,22.2600757 23.1331823,25.3772973 C33.4982344,28.4945189 43.2606979,35.9847459 65.3672969,35.7394757 C87.4738958,35.4942054 96.3235469,26.9751514 112.239557,23.5322108 C128.155568,20.0892703 128.169458,22.3660324 128.169458,22.3660324" id="Path_127" stroke-linecap="round"></path>
                        <path d="M0.550333333,80.5794595 C0.550333333,80.5794595 12.7681302,80.4708865 23.1331823,83.5881081 C33.4982344,86.7053297 43.2606979,94.1955568 65.3672969,93.9502865 C87.4738958,93.7050162 96.3235469,85.1859622 112.239557,81.7430216 C128.155568,78.3000811 128.169458,80.5768432 128.169458,80.5768432" id="Path_128" stroke-linecap="round"></path>
                    </g>
                </g>
            </g>
            <g id="Group_14" transform="translate(99.000000, 117.000000)">
                <path d="M32.9735085,78.6735537 L32.5180678,41.3091653 C32.5180678,41.3091653 35.1469322,41.390124 36.2766102,40.3246033 C37.4062881,39.2590826 37.7665424,38.7276281 38.1578644,36.7121488 C38.5491864,34.6966694 39.1441017,24.1524545 38.1578644,22.0357769 C37.1716271,19.9190992 34.9420169,17.3950165 33.6536949,18.3919835 C32.3653729,19.3889504 32.5187288,26.1868678 32.5187288,26.1868678 C32.5187288,26.1868678 32.9199661,9.26323967 32.5187288,8.50784298 C32.1174915,7.75244628 29.7715424,5.36416529 27.457322,5.0475124 C25.1431017,4.7308595 22.347,7.60619835 22.347,7.60619835 L22.347,24.9202562 C22.347,24.9202562 22.5360508,5.68212397 22.347,5.0475124 C21.5213262,2.58632666 19.2128274,0.907900857 16.5882203,0.860512397 C12.3081356,0.622206612 10.4890169,3.60266116 10.4361356,4.53890909 C10.3832542,5.47515702 10.4361356,24.9202562 10.4361356,24.9202562 L10.4361356,12.397124 C10.4361356,12.397124 9.84783051,9.5061157 5.30862712,9.58185124 C2.8187952,9.47940794 0.612693519,11.1544303 0.0727118644,13.557314 L0.0727118644,78.6735537 L32.9735085,78.6735537 Z" id="Path_123-2" fill="#FFFFFF" fill-rule="nonzero"></path>
                <path d="M0.0720508475,78.0206612 L0.0720508475,12.9044215 C0.612032502,10.5015377 2.81813418,8.82651537 5.3079661,8.92895868 C9.84783051,8.85322314 10.4354746,11.7442314 10.4354746,11.7442314 L10.4354746,24.2673636 C10.4354746,24.2673636 10.3825932,4.82422314 10.4354746,3.88601653 C10.4883559,2.94780992 12.3074746,-0.031338843 16.5875593,0.207619835 C19.2121664,0.255008295 21.5206651,1.93343409 22.346339,4.39461983 C22.5353898,5.0292314 22.346339,24.2673636 22.346339,24.2673636 L22.5935593,6.71957025 C22.5935593,6.71957025 25.1431017,4.07861983 27.457322,4.39461983 C29.7715424,4.71061983 32.408339,7.4436281 32.5187288,7.85495041 C32.6291186,8.26627273 32.4427119,25.0593223 32.5187288,25.5339752 C32.5947458,26.0086281 32.3660339,18.7360579 33.6536949,17.7390909 C34.9413559,16.742124 37.1716271,19.2668595 38.1578644,21.3828843 C39.1441017,23.4989091 38.5485254,34.0437769 38.1578644,36.0592562 C37.7672034,38.0747355 37.4062881,38.6055372 36.2766102,39.6717107 C35.1469322,40.7378843 32.5180678,40.6562727 32.5180678,40.6562727 L32.9735085,78.0206612" id="Path_121-2" stroke="#111111" stroke-width="4" stroke-linecap="round"></path>
                <line x1="5.75084746" y1="25.2669421" x2="27.3350339" y2="25.2669421" id="Path_122-2" stroke="#111111" stroke-width="4" stroke-linecap="round"></line>
            </g>
        </g>
    </g>
</svg>