<?xml version="1.0" encoding="UTF-8"?>
<svg width="129px" height="149px" viewBox="0 0 129 149" version="1.1" xmlns="http://www.w3.org/2000/svg" xmlns:xlink="http://www.w3.org/1999/xlink">
    <!-- Generator: Sketch 59.1 (86144) - https://sketch.com -->
    <title>GTF 1</title>
    <desc>Created with Sketch.</desc>
    <g id="GTF-1" stroke="none" stroke-width="1" fill="none" fill-rule="evenodd">
        <g id="noun_magnify-glass_2059079" transform="translate(74.500000, 74.500000) scale(-1, 1) translate(-74.500000, -74.500000) " fill="#000000" fill-rule="nonzero">
            <path d="M94.4891058,95 C94.4909214,95 94.4927368,95 94.4945523,95 C116.825105,94.9972768 134.996366,76.8269231 135.000001,54.4954612 C135.001812,43.6778508 130.78987,33.5074636 123.141202,25.858795 C115.49435,18.2110341 105.325778,14 94.5090763,14 C94.5072607,14 94.5054453,14 94.5054453,14 C72.1748924,14.0036309 54.0036321,32.1739847 54.0000006,54.5054464 C53.9981856,65.3230568 58.2101273,75.493444 65.8587955,83.1421126 C73.5056481,90.7889659 83.6724039,95 94.4891058,95 Z M94.5054453,17.718128 C94.5072609,17.718128 94.5072609,17.718128 94.5090763,17.718128 C104.332704,17.718128 113.568112,21.5433701 120.51237,28.4885354 C127.458442,35.4346086 131.281869,44.6700175 131.281869,54.4954612 C131.278238,74.7772324 114.775415,91.2791488 94.4945523,91.281872 C94.4927368,91.281872 94.4909214,91.281872 94.4891058,91.281872 C84.6672936,91.281872 75.4318852,87.4575377 68.487628,80.5123722 C61.5415553,73.566299 57.7163134,64.3308901 57.7181282,54.5054464 C57.7217599,34.224583 74.2245831,17.721759 94.5054453,17.718128 Z" id="Shape"></path>
            <path d="M4.02573617,144.983075 C6.61676364,147.573114 10.0720735,149 13.758465,149 C17.4448566,149 20.9001664,147.573114 23.4911938,144.983075 L54.8782891,113.598859 C56.9020744,111.574595 57.4797789,108.67251 56.6775884,106.114301 L63.8615942,98.9307617 C72.8667338,105.184756 83.5380049,108.564288 94.7353512,108.564288 C109.23528,108.564288 122.869106,102.917676 133.122224,92.6648316 C154.292592,71.5007203 154.292592,37.0635682 133.122224,15.8985473 C122.869106,5.64661258 109.23528,0 94.7353514,0 C80.2336036,0 66.6015967,5.64661258 56.3484789,15.8985473 C37.5331662,34.710775 35.4568416,64.000702 50.0889141,85.1435554 L42.8955831,92.3364158 C40.3361702,91.534645 37.4349109,92.1134934 35.4110118,94.1353697 L4.02573617,125.519586 C-1.34191206,130.886096 -1.34191206,139.616565 4.02573617,144.983075 Z M58.9831753,18.5322387 C68.5321305,8.98419806 81.2288928,3.725 94.7353514,3.725 C108.23999,3.725 120.936753,8.98419806 130.487527,18.5322387 C150.204082,38.2449097 150.204082,70.3193787 130.487527,90.0311402 C120.936753,99.5800903 108.23999,104.839288 94.7353514,104.839288 C81.228893,104.839288 68.5321305,99.5800903 58.9831753,90.0311402 C39.2684404,70.3193787 39.2684404,38.2449097 58.9831753,18.5322387 Z M56.3484789,92.6648316 C57.7811406,94.0975152 59.2861291,95.4301621 60.8438842,96.6800515 L54.657897,102.865611 L46.1456258,94.3547685 L52.3333187,88.1676173 C53.5768619,89.7209128 54.9092214,91.2258957 56.3484789,92.6648316 Z M38.0457083,96.7690613 C38.769886,96.0460694 39.7178671,95.6850282 40.6694875,95.6850282 C41.6174688,95.6850282 42.569089,96.0460696 43.2914472,96.7690613 L52.2435927,105.719611 C53.6901284,107.165595 53.6901284,109.518274 52.2435927,110.965167 L20.8564974,142.349384 C18.9696326,144.235529 16.4495672,145.275 13.758465,145.275 C11.0673628,145.275 8.54729742,144.235529 6.66043264,142.349384 C2.74659839,138.435223 2.74659839,132.067438 6.66043264,128.153278 L38.0457083,96.7690613 Z" id="Shape"></path>
            <path d="M107.530973,117.531036 C106.823009,118.239084 106.823009,119.387007 107.530973,120.09417 L118.906195,131.468964 C119.260177,131.822988 119.723894,132 120.187611,132 C120.651327,132 121.115044,131.822988 121.469027,131.468964 C122.176991,130.760916 122.176991,129.612993 121.469027,128.90583 L110.093805,117.531036 C109.385841,116.822988 108.238938,116.822988 107.530973,117.531036 Z" id="Path"></path>
            <path d="M93,123 C91.8945312,123 91,123.813713 91,124.817321 L91,136.182679 C91,137.186287 91.8945312,138 93,138 C94.1054688,138 95,137.186287 95,136.182679 L95,124.817321 C95,123.813713 94.1054686,123 93,123 Z" id="Path"></path>
            <path d="M17.5310361,27.5310048 C16.822988,28.2390111 16.822988,29.3859815 17.5310361,30.0939878 L28.9058297,41.4689951 C29.2598538,41.8229983 29.7236254,42 30.1873968,42 C30.6511682,42 31.11494,41.8229985 31.4689639,41.4689951 C32.177012,40.7609888 32.177012,39.6140184 31.4689639,38.9060121 L20.0941703,27.5310048 C19.3861223,26.8229984 18.2390843,26.8229984 17.5310361,27.5310048 Z" id="Path"></path>
            <path d="M11,56 C11,57.1044922 11.8128253,58 12.8173214,58 L24.1826786,58 C25.1871747,58 26,57.1044922 26,56 C26,54.8955078 25.1871747,54 24.1826786,54 L12.8173214,54 C11.8128253,54 11,54.895508 11,56 Z" id="Path"></path>
        </g>
    </g>
</svg>